<svg width="102" height="42" viewBox="0 0 102 42" fill="none" xmlns="http://www.w3.org/2000/svg">
  <g clip-path="url(#clip0)">
    <path opacity="0.8"
      d="M37.5 12C37.1022 12 36.7206 12.158 36.4393 12.4393C36.158 12.7206 36 13.1022 36 13.5V21C36 22.5913 35.3679 24.1174 34.2426 25.2426C33.1174 26.3679 31.5913 27 30 27C28.4087 27 26.8826 26.3679 25.7574 25.2426C24.6321 24.1174 24 22.5913 24 21V13.5C24 13.1022 23.842 12.7206 23.5607 12.4393C23.2794 12.158 22.8978 12 22.5 12C22.1022 12 21.7206 12.158 21.4393 12.4393C21.158 12.7206 21 13.1022 21 13.5V21C21 23.3869 21.9482 25.6761 23.636 27.364C25.3239 29.0518 27.6131 30 30 30C32.3869 30 34.6761 29.0518 36.364 27.364C38.0518 25.6761 39 23.3869 39 21V13.5C39 13.1022 38.842 12.7206 38.5607 12.4393C38.2794 12.158 37.8978 12 37.5 12Z"
      fill="black" />
    <path opacity="0.8"
      d="M12.75 19.5H5.25C4.65326 19.5 4.08097 19.2629 3.65901 18.841C3.23705 18.419 3 17.8467 3 17.25C3 16.6533 3.23705 16.081 3.65901 15.659C4.08097 15.2371 4.65326 15 5.25 15H15.75C16.1478 15 16.5294 14.842 16.8107 14.5607C17.092 14.2794 17.25 13.8978 17.25 13.5C17.25 13.1022 17.092 12.7206 16.8107 12.4393C16.5294 12.158 16.1478 12 15.75 12H5.25C3.85761 12 2.52226 12.5531 1.53769 13.5377C0.553124 14.5223 0 15.8576 0 17.25C0 18.6424 0.553124 19.9777 1.53769 20.9623C2.52226 21.9469 3.85761 22.5 5.25 22.5H12.75C13.3467 22.5 13.919 22.7371 14.341 23.159C14.7629 23.581 15 24.1533 15 24.75C15 25.3467 14.7629 25.919 14.341 26.341C13.919 26.7629 13.3467 27 12.75 27H2.25C1.85218 27 1.47064 27.158 1.18934 27.4393C0.908035 27.7206 0.75 28.1022 0.75 28.5C0.75 28.8978 0.908035 29.2794 1.18934 29.5607C1.47064 29.842 1.85218 30 2.25 30H12.75C14.1424 30 15.4777 29.4469 16.4623 28.4623C17.4469 27.4777 18 26.1424 18 24.75C18 23.3576 17.4469 22.0223 16.4623 21.0377C15.4777 20.0531 14.1424 19.5 12.75 19.5Z"
      fill="black" />
    <path opacity="0.8"
      d="M52.5 27C50.9087 27 49.3826 26.3679 48.2574 25.2426C47.1321 24.1174 46.5 22.5913 46.5 21V3C46.5 2.60217 46.342 2.22064 46.0607 1.93934C45.7794 1.65804 45.3978 1.5 45 1.5C44.6022 1.5 44.2206 1.65804 43.9393 1.93934C43.658 2.22064 43.5 2.60217 43.5 3V21C43.5 23.3869 44.4482 25.6761 46.136 27.364C47.8239 29.0518 50.1131 30 52.5 30C52.8978 30 53.2794 29.842 53.5607 29.5607C53.842 29.2794 54 28.8978 54 28.5C54 28.1022 53.842 27.7206 53.5607 27.4393C53.2794 27.158 52.8978 27 52.5 27Z"
      fill="black" />
    <path opacity="0.8"
      d="M64.5 27C62.9087 27 61.3826 26.3679 60.2574 25.2426C59.1321 24.1174 58.5 22.5913 58.5 21V3C58.5 2.60217 58.342 2.22064 58.0607 1.93934C57.7794 1.65804 57.3978 1.5 57 1.5C56.6022 1.5 56.2206 1.65804 55.9393 1.93934C55.658 2.22064 55.5 2.60217 55.5 3V21C55.5 23.3869 56.4482 25.6761 58.136 27.364C59.8239 29.0518 62.1131 30 64.5 30C64.8978 30 65.2794 29.842 65.5607 29.5607C65.842 29.2794 66 28.8978 66 28.5C66 28.1022 65.842 27.7206 65.5607 27.4393C65.2794 27.158 64.8978 27 64.5 27Z"
      fill="black" />
    <path opacity="0.8"
      d="M81 27H76.5C74.9087 27 73.3826 26.3679 72.2574 25.2426C71.1321 24.1174 70.5 22.5913 70.5 21V13.5C70.5 13.1022 70.342 12.7206 70.0607 12.4393C69.7794 12.158 69.3978 12 69 12C68.6022 12 68.2206 12.158 67.9393 12.4393C67.658 12.7206 67.5 13.1022 67.5 13.5V21C67.5 23.3869 68.4482 25.6761 70.136 27.364C71.8239 29.0518 74.1131 30 76.5 30H79.5V40.5C79.5 40.8978 79.658 41.2794 79.9393 41.5607C80.2206 41.842 80.6022 42 81 42C81.3978 42 81.7794 41.842 82.0607 41.5607C82.342 41.2794 82.5 40.8978 82.5 40.5V28.5C82.5 28.1022 82.342 27.7206 82.0607 27.4393C81.7794 27.158 81.3978 27 81 27Z"
      fill="black" />
    <path
      d="M95.4376 0.199394L90.4919 1.61755C87.7624 2.4002 86.1843 5.24732 86.9669 7.97675L86.968 7.98036C87.7506 10.7098 90.5977 12.288 93.3272 11.5053L98.2728 10.0872C101.002 9.30452 102.58 6.4574 101.798 3.72796L101.797 3.72436C101.014 0.994918 98.167 -0.58326 95.4376 0.199394Z"
      fill="#CC0066" />
    <g style="mix-blend-mode:multiply" opacity="0.2">
      <path
        d="M92.672 6.49749L87.7263 7.91564C84.9968 8.69829 83.4186 11.5454 84.2013 14.2749L84.2023 14.2785C84.985 17.0079 87.8321 18.5861 90.5615 17.8034L95.5072 16.3853C98.2367 15.6026 99.8149 12.7555 99.0322 10.0261L99.0312 10.0225C98.2485 7.29301 95.4014 5.71483 92.672 6.49749Z"
        fill="black" />
    </g>
    <path fill-rule="evenodd" clip-rule="evenodd"
      d="M92.6704 6.49339L87.7279 7.91088C87.4907 7.98016 87.2588 8.06664 87.0342 8.16964C87.4491 9.43149 88.3367 10.4836 89.5106 11.1052C90.6845 11.7267 92.0536 11.8695 93.3304 11.5034L98.273 10.0859C98.5102 10.0166 98.7421 9.93013 98.9667 9.82713C98.5518 8.56528 97.6642 7.51318 96.4903 6.89161C95.3164 6.27004 93.9473 6.12732 92.6704 6.49339Z"
      fill="#660066" />
  </g>
  <defs>
    <clipPath id="clip0">
      <rect width="102" height="42" fill="white" />
    </clipPath>
  </defs>
</svg>